<svg xmlns="http://www.w3.org/2000/svg" viewBox="0 0 256 256">
  <defs>
    <linearGradient id="g" x1="0" y1="0" x2="1" y2="1">
      <stop offset="0%" stop-color="#7c3aed"/>
      <stop offset="100%" stop-color="#22d3ee"/>
    </linearGradient>
  </defs>
  <rect width="256" height="256" rx="48" fill="url(#g)"/>
  <g fill="#ffffff">
    <path d="M64 168h48v24H64a24 24 0 0 1-24-24V88a24 24 0 0 1 24-24h48v24H64v80z"/>
    <path d="M192 64h-48v24h48v80h-48v24h48a24 24 0 0 0 24-24V88a24 24 0 0 0-24-24z"/>
    <rect x="96" y="96" width="64" height="64" rx="8"/>
  </g>
</svg>

